<mxfile host="app.diagrams.net" modified="2023-05-09T04:27:01.948Z" agent="Mozilla/5.0 (X11; Linux x86_64) AppleWebKit/537.36 (KHTML, like Gecko) Chrome/113.0.0.0 Safari/537.36" version="21.2.9" etag="6zNIeszQ_IfX_ahXV1hq" type="github">
  <diagram name="Page-1" id="6cBBODKyayb9WkINnee3">
    <mxGraphModel>
      <root>
        <mxCell id="0" />
        <mxCell id="1" parent="0" />
      </root>
    </mxGraphModel>
  </diagram>
</mxfile>
